<?xml version="1.0" encoding="UTF-8" standalone="no"?>
<!-- Created with Inkscape (http://www.inkscape.org/) -->

<svg
   xmlns:dc="http://purl.org/dc/elements/1.1/"
   xmlns:cc="http://creativecommons.org/ns#"
   xmlns:rdf="http://www.w3.org/1999/02/22-rdf-syntax-ns#"
   xmlns:svg="http://www.w3.org/2000/svg"
   xmlns="http://www.w3.org/2000/svg"
   xmlns:sodipodi="http://sodipodi.sourceforge.net/DTD/sodipodi-0.dtd"
   xmlns:inkscape="http://www.inkscape.org/namespaces/inkscape"
   width="30"
   height="30"
   id="svg4229"
   version="1.1"
   inkscape:version="0.48.5 r10040"
   sodipodi:docname="instagram.svg">
  <defs
     id="defs4231" />
  <sodipodi:namedview
     id="base"
     pagecolor="#ffffff"
     bordercolor="#666666"
     borderopacity="1.0"
     inkscape:pageopacity="0.0"
     inkscape:pageshadow="2"
     inkscape:zoom="5.6"
     inkscape:cx="-40.490036"
     inkscape:cy="-10.930299"
     inkscape:document-units="px"
     inkscape:current-layer="layer1"
     showgrid="false"
     inkscape:window-width="1440"
     inkscape:window-height="852"
     inkscape:window-x="0"
     inkscape:window-y="25"
     inkscape:window-maximized="1" />
  <metadata
     id="metadata4234">
    <rdf:RDF>
      <cc:Work
         rdf:about="">
        <dc:format>image/svg+xml</dc:format>
        <dc:type
           rdf:resource="http://purl.org/dc/dcmitype/StillImage" />
        <dc:title></dc:title>
      </cc:Work>
    </rdf:RDF>
  </metadata>
  <g
     inkscape:label="Layer 1"
     inkscape:groupmode="layer"
     id="layer1"
     transform="translate(0,-1022.3622)">
    <path
       inkscape:connector-curvature="0"
       d="M 23.61915,1023.573 H 6.57061 c -2.96136,0 -5.37061,2.4086 -5.37061,5.3701 v 5.6727 11.3763 c 0,2.9615 2.40925,5.3701 5.37061,5.3701 H 23.6197 c 2.96137,0 5.37006,-2.4086 5.37006,-5.3701 v -11.3769 -5.6727 c -5.6e-4,-2.9613 -2.40925,-5.3695 -5.37061,-5.3695 z m 1.54038,3.2025 0.61436,0 v 0.6116 4.0986 l -4.6946,0.015 -0.0162,-4.7098 4.0965,-0.013 z m -14.03108,7.8397 c 0.89014,-1.2315 2.33412,-2.0393 3.96643,-2.0393 1.63231,0 3.07629,0.8078 3.96532,2.0393 0.57905,0.8038 0.92602,1.7872 0.92602,2.8522 0,2.6967 -2.19623,4.8907 -4.8919,4.8907 -2.69737,0 -4.89134,-2.194 -4.89134,-4.8907 5.6e-4,-1.065 0.34641,-2.0484 0.92547,-2.8522 z m 15.1533,11.3764 c 0,1.4691 -1.19453,2.6625 -2.6626,2.6625 H 6.57061 c -1.46864,0 -2.66315,-1.1934 -2.66315,-2.6625 v -11.3764 h 4.14806 c -0.3582,0.8813 -0.55944,1.8437 -0.55944,2.8522 0,4.1889 3.40815,7.5993 7.5988,7.5993 4.1901,0 7.59823,-3.4104 7.59823,-7.5993 0,-1.0085 -0.20236,-1.9709 -0.56055,-2.8522 h 4.14919 v 11.3764 z"
       id="path3130"
       style="fill:#4b3c38;fill-opacity:1" />
  </g>
</svg>
